<mxfile host="app.diagrams.net" modified="2024-05-22T12:00:02.404Z" agent="Mozilla/5.0 (Windows NT 10.0; Win64; x64) AppleWebKit/537.36 (KHTML, like Gecko) Chrome/122.0.0.0 Safari/537.36 Edg/122.0.0.0" etag="j5fPE1x0RGQERQyNVLuR" version="24.4.5" type="github">
  <diagram name="Página-1" id="d-9Bt2Axt7gJ94_6c1GM">
    <mxGraphModel dx="815" dy="449" grid="1" gridSize="10" guides="1" tooltips="1" connect="1" arrows="1" fold="1" page="1" pageScale="1" pageWidth="827" pageHeight="1169" math="0" shadow="0">
      <root>
        <mxCell id="0" />
        <mxCell id="1" parent="0" />
        <mxCell id="0LqBSVXBZtilKuwkoKhC-1" value="XPTO System" style="shape=umlFrame;whiteSpace=wrap;html=1;pointerEvents=0;width=150;height=20;" vertex="1" parent="1">
          <mxGeometry x="190" y="110" width="450" height="330" as="geometry" />
        </mxCell>
        <mxCell id="0LqBSVXBZtilKuwkoKhC-9" style="edgeStyle=orthogonalEdgeStyle;rounded=0;orthogonalLoop=1;jettySize=auto;html=1;entryX=0;entryY=0.5;entryDx=0;entryDy=0;" edge="1" parent="1" source="0LqBSVXBZtilKuwkoKhC-2" target="0LqBSVXBZtilKuwkoKhC-3">
          <mxGeometry relative="1" as="geometry" />
        </mxCell>
        <mxCell id="0LqBSVXBZtilKuwkoKhC-2" value="User" style="shape=umlActor;verticalLabelPosition=bottom;verticalAlign=top;html=1;" vertex="1" parent="1">
          <mxGeometry x="100" y="160" width="30" height="60" as="geometry" />
        </mxCell>
        <mxCell id="0LqBSVXBZtilKuwkoKhC-10" style="edgeStyle=orthogonalEdgeStyle;rounded=0;orthogonalLoop=1;jettySize=auto;html=1;entryX=0;entryY=0.5;entryDx=0;entryDy=0;" edge="1" parent="1" source="0LqBSVXBZtilKuwkoKhC-3" target="0LqBSVXBZtilKuwkoKhC-4">
          <mxGeometry relative="1" as="geometry" />
        </mxCell>
        <mxCell id="0LqBSVXBZtilKuwkoKhC-3" value="Inserir dados de login" style="ellipse;whiteSpace=wrap;html=1;" vertex="1" parent="1">
          <mxGeometry x="230" y="160" width="100" height="60" as="geometry" />
        </mxCell>
        <mxCell id="0LqBSVXBZtilKuwkoKhC-11" style="edgeStyle=orthogonalEdgeStyle;rounded=0;orthogonalLoop=1;jettySize=auto;html=1;entryX=0;entryY=0.5;entryDx=0;entryDy=0;" edge="1" parent="1" source="0LqBSVXBZtilKuwkoKhC-4" target="0LqBSVXBZtilKuwkoKhC-5">
          <mxGeometry relative="1" as="geometry" />
        </mxCell>
        <mxCell id="0LqBSVXBZtilKuwkoKhC-4" value="Validar login" style="ellipse;whiteSpace=wrap;html=1;" vertex="1" parent="1">
          <mxGeometry x="380" y="160" width="100" height="60" as="geometry" />
        </mxCell>
        <mxCell id="0LqBSVXBZtilKuwkoKhC-12" style="edgeStyle=orthogonalEdgeStyle;rounded=0;orthogonalLoop=1;jettySize=auto;html=1;" edge="1" parent="1" source="0LqBSVXBZtilKuwkoKhC-5" target="0LqBSVXBZtilKuwkoKhC-6">
          <mxGeometry relative="1" as="geometry" />
        </mxCell>
        <mxCell id="0LqBSVXBZtilKuwkoKhC-5" value="Acessar campo de notas" style="ellipse;whiteSpace=wrap;html=1;" vertex="1" parent="1">
          <mxGeometry x="520" y="160" width="100" height="60" as="geometry" />
        </mxCell>
        <mxCell id="0LqBSVXBZtilKuwkoKhC-15" style="edgeStyle=orthogonalEdgeStyle;rounded=0;orthogonalLoop=1;jettySize=auto;html=1;entryX=1;entryY=0.5;entryDx=0;entryDy=0;" edge="1" parent="1" source="0LqBSVXBZtilKuwkoKhC-6" target="0LqBSVXBZtilKuwkoKhC-7">
          <mxGeometry relative="1" as="geometry" />
        </mxCell>
        <mxCell id="0LqBSVXBZtilKuwkoKhC-6" value="Inserir 4 notas" style="ellipse;whiteSpace=wrap;html=1;" vertex="1" parent="1">
          <mxGeometry x="520" y="340" width="100" height="60" as="geometry" />
        </mxCell>
        <mxCell id="0LqBSVXBZtilKuwkoKhC-16" style="edgeStyle=orthogonalEdgeStyle;rounded=0;orthogonalLoop=1;jettySize=auto;html=1;entryX=1;entryY=0.5;entryDx=0;entryDy=0;" edge="1" parent="1" source="0LqBSVXBZtilKuwkoKhC-7" target="0LqBSVXBZtilKuwkoKhC-8">
          <mxGeometry relative="1" as="geometry" />
        </mxCell>
        <mxCell id="0LqBSVXBZtilKuwkoKhC-7" value="Realizar cálculo de média" style="ellipse;whiteSpace=wrap;html=1;" vertex="1" parent="1">
          <mxGeometry x="380" y="340" width="100" height="60" as="geometry" />
        </mxCell>
        <mxCell id="0LqBSVXBZtilKuwkoKhC-17" style="edgeStyle=orthogonalEdgeStyle;rounded=0;orthogonalLoop=1;jettySize=auto;html=1;" edge="1" parent="1" source="0LqBSVXBZtilKuwkoKhC-8" target="0LqBSVXBZtilKuwkoKhC-2">
          <mxGeometry relative="1" as="geometry" />
        </mxCell>
        <mxCell id="0LqBSVXBZtilKuwkoKhC-8" value="Exibir resultado" style="ellipse;whiteSpace=wrap;html=1;" vertex="1" parent="1">
          <mxGeometry x="230" y="340" width="100" height="60" as="geometry" />
        </mxCell>
      </root>
    </mxGraphModel>
  </diagram>
</mxfile>
